<svg version="1.1" id="Layer_1" xmlns="http://www.w3.org/2000/svg" xmlns:xlink="http://www.w3.org/1999/xlink" x="0px" y="0px"
	 width="100%" viewBox="0 0 224 224" enable-background="new 0 0 224 224" xml:space="preserve">
<path fill="#000000" opacity="1.000000" stroke="none" 
	d="
M109.869263,177.609833 
	C109.849426,165.016602 109.849426,152.885284 109.849426,140.753952 
	C109.542221,140.650772 109.235008,140.547592 108.927803,140.444412 
	C107.554756,142.768463 106.131203,145.064362 104.817818,147.421646 
	C100.278175,155.569565 95.795120,163.749069 91.247177,171.892319 
	C90.214569,173.741257 89.160233,176.417801 86.510422,175.124481 
	C83.644684,173.725784 85.507484,171.311157 86.466812,169.540985 
	C92.338997,158.705536 98.320465,147.929352 104.258621,137.129608 
	C104.808823,136.128952 105.310867,135.101807 105.826782,134.103394 
	C101.395859,131.341705 99.279198,122.965439 101.614967,118.309395 
	C102.605385,116.335121 104.385071,116.090172 106.234955,115.963715 
	C108.037315,115.840508 109.707169,115.482269 109.654854,113.246788 
	C109.602478,111.007881 110.755119,108.266701 108.547295,106.706589 
	C106.703613,105.403786 104.361046,105.768280 102.540825,107.389900 
	C98.559837,110.936554 96.830353,116.343628 92.386223,119.563766 
	C90.402756,121.000954 88.685379,123.772346 86.088867,121.327667 
	C83.218834,118.625465 85.904556,116.504654 87.698532,114.642525 
	C90.216202,112.029213 92.722076,109.524681 96.164474,107.835762 
	C99.495636,106.201424 101.929733,103.241554 100.672813,98.756927 
	C98.399063,97.608788 96.053818,97.869553 93.528671,97.899513 
	C87.843925,97.966949 82.223686,96.708221 76.435242,96.930435 
	C73.225403,97.053665 71.454231,93.908287 71.131775,90.605179 
	C70.821877,87.430649 72.139244,84.751503 75.099823,83.820747 
	C78.759132,82.670319 80.874695,80.277794 83.322250,77.519501 
	C86.417610,74.031158 90.985596,71.997849 94.755211,69.048409 
	C103.340858,62.330780 112.332420,56.125866 121.241302,49.829002 
	C131.873489,42.314102 144.942856,42.764954 154.537842,50.830482 
	C163.739014,58.564976 166.645844,71.721230 161.556442,82.596634 
	C156.292633,93.844727 144.601288,99.685539 131.703308,97.337776 
	C127.746689,96.617569 124.834991,97.143204 124.012398,101.710052 
	C123.473412,104.702332 121.254326,105.750046 118.589294,105.970360 
	C114.355988,106.320328 115.507660,109.474045 115.307961,111.955643 
	C115.090187,114.661903 116.298286,116.053024 119.047470,115.992043 
	C123.026573,115.903786 124.369530,118.206100 124.105728,121.746780 
	C123.778877,126.133759 126.064613,131.448868 119.416931,133.878937 
	C125.580315,145.048248 131.691910,155.889679 137.526718,166.878082 
	C138.827911,169.328552 142.722763,172.765182 138.711807,174.907501 
	C135.153000,176.808289 134.307602,171.856644 132.957886,169.552979 
	C127.908592,160.935074 123.186012,152.126144 118.293777,143.415329 
	C117.596695,142.174149 117.217766,140.643570 115.334328,139.702942 
	C115.334328,151.065704 115.334976,162.162689 115.333565,173.259689 
	C115.333374,174.759277 115.360931,176.260208 115.307396,177.758087 
	C115.241707,179.596481 115.321175,181.806107 112.829445,181.929581 
	C110.399574,182.049988 110.106186,179.954269 109.869263,177.609833 
M125.517288,57.525307 
	C124.730453,58.311413 123.943619,59.097519 122.595695,60.314999 
	C117.455841,67.619308 117.058716,74.440102 121.379730,81.199295 
	C125.434853,87.542526 132.483978,90.629707 139.763763,89.149414 
	C137.803833,88.428284 135.232773,90.159698 133.768692,87.065598 
	C145.776443,85.923759 152.160370,79.128906 154.188385,67.442764 
	C154.358292,70.317719 154.528214,73.192665 154.708313,76.240089 
	C157.287918,67.742149 154.686523,60.321293 147.617859,55.656017 
	C140.985992,51.279026 132.099319,51.881260 125.517288,57.525307 
z"/>
<path fill="#000000" opacity="1.000000" stroke="none" 
	d="
M125.711555,57.326355 
	C130.718658,55.252270 135.339935,52.233204 141.304993,54.941307 
	C129.412872,56.693024 122.275650,62.896942 121.763374,75.580666 
	C118.773621,71.774559 119.075439,68.997421 123.025917,60.253151 
	C123.943619,59.097519 124.730453,58.311413 125.711555,57.326355 
z"/>
</svg>